PathFileType	4	(X/Y/Z)	 s03c0303.trc
DataRate	CameraRate	NumFrames	NumMarkers	Units	OrigDataRate	OrigDataStartFrame	OrigNumFrames
200	200	4	50	mm	200	751	2000
Frame#	Time	racr			lacr			c7			jug			rlel			rdr			llel			ldr			s2			lic			ric			lasi			rasi			rpsi			lpsi			rgt			lgt			rth1			rth2			rth3			rth4			rlfc			rmfc			rsh1			rsh2			rsh3			rsh4			rlmal			rcal			rtoe			rmt5			rmt1			lth1			lth2			lth4			lth3			llfc			lmfc			lsh1			lsh2			lsh3			lsh4			llmal			lcal			ltoe			lmt1			lmt5			SBIKE			LBIKE			RBIKE			
		X1	Y1	Z1	X2	Y2	Z2	X3	Y3	Z3	X4	Y4	Z4	X5	Y5	Z5	X6	Y6	Z6	X7	Y7	Z7	X8	Y8	Z8	X9	Y9	Z9	X10	Y10	Z10	X11	Y11	Z11	X12	Y12	Z12	X13	Y13	Z13	X14	Y14	Z14	X15	Y15	Z15	X16	Y16	Z16	X17	Y17	Z17	X18	Y18	Z18	X19	Y19	Z19	X20	Y20	Z20	X21	Y21	Z21	X22	Y22	Z22	X23	Y23	Z23	X24	Y24	Z24	X25	Y25	Z25	X26	Y26	Z26	X27	Y27	Z27	X28	Y28	Z28	X29	Y29	Z29	X30	Y30	Z30	X31	Y31	Z31	X32	Y32	Z32	X33	Y33	Z33	X34	Y34	Z34	X35	Y35	Z35	X36	Y36	Z36	X37	Y37	Z37	X38	Y38	Z38	X39	Y39	Z39	X40	Y40	Z40	X41	Y41	Z41	X42	Y42	Z42	X43	Y43	Z43	X44	Y44	Z44	X45	Y45	Z45	X46	Y46	Z46	X47	Y47	Z47	X48	Y48	Z48	X49	Y49	Z49	X50	Y50	Z50	
751	3.7550	706.783782	1449.815714	-90.490492	719.185391	1455.246380	-421.039083	656.800590	1542.832198	-263.359447	665.544302	1365.283949	-253.103993	626.407326	1185.910633	26.218852	761.406394	939.807596	-31.717505	645.007577	1190.426684	-519.409032	752.415818	930.707898	-417.302058	134.142865	1249.560832	-262.437542	323.429192	1254.435901	-435.696777	293.585626	1305.356058	-76.430735	336.712884	1189.873722	-382.937758	331.263481	1232.416028	-114.985504	159.243821	1304.639547	-224.446558	168.009779	1294.851901	-306.281594	251.226129	1210.945313	-49.206378	243.979696	1127.717441	-437.483091	368.477522	1113.458659	-13.381719	454.007667	1088.482424	-7.529151	514.828957	1027.820736	0.525551	472.209133	1115.123556	-26.399024	599.934849	926.886092	-6.052076	612.075595	899.881239	-132.944442	472.366543	821.516964	3.512053	416.190994	755.589337	-19.340433	333.740652	726.526866	-28.377956	436.651012	733.754691	-42.586319	223.723358	657.648446	-58.159516	151.507822	665.893393	-100.105621	360.206460	437.337400	-119.614295	271.219765	509.231996	-42.997448	294.240886	506.413051	-157.130320	272.862795	979.709345	-450.780151	311.244619	901.791921	-451.187688	346.923309	909.549008	-450.341879	306.609931	813.757556	-437.761874	352.001412	695.051335	-414.762373	351.987542	680.450072	-296.042627	277.078584	542.100458	-442.977307	268.708941	458.587388	-427.654923	217.344874	384.525118	-424.714120	300.391435	448.989359	-406.819097	162.252090	269.422945	-410.134929	91.806819	245.729339	-368.819516	382.515928	134.518936	-353.019518	291.004803	168.381199	-314.331393	264.881877	150.456346	-432.310151	-116.307551	1019.650469	-238.113124	-7.530556	83.594437	-437.101398	-13.556129	81.104264	-36.718815	
752	3.7600	704.237671	1452.423119	-87.498114	719.582711	1457.650818	-416.582582	655.402906	1545.614174	-259.900030	664.553664	1367.865078	-250.346683	624.696192	1187.167180	26.056945	761.441412	941.136397	-32.244182	649.512549	1193.387757	-518.575923	752.669979	930.342150	-416.543910	134.306608	1250.410232	-265.957245	326.103778	1257.556816	-435.716182	290.690203	1307.041353	-77.625945	338.112412	1192.388778	-382.835001	329.614764	1235.256883	-115.080460	158.541851	1305.218777	-227.132893	168.022817	1296.447547	-308.889991	249.769386	1213.496291	-50.414223	245.150873	1129.893305	-438.369394	368.380838	1117.501012	-14.604144	454.089574	1093.227212	-8.394900	515.417632	1033.005574	-0.539790	472.137075	1120.067241	-27.344556	602.914514	933.886457	-8.297827	616.303278	907.083800	-134.838275	477.801221	826.664035	2.389709	422.832724	759.686627	-20.055320	340.829452	729.012548	-28.800939	443.578773	738.109642	-43.396209	231.485775	657.641512	-58.502073	158.925438	664.555839	-99.931528	371.718123	439.785657	-119.795712	281.452680	509.985912	-43.406191	304.420487	507.697418	-157.138070	272.557701	981.626491	-451.955422	310.088860	903.302233	-452.514138	345.828243	910.755011	-451.576366	304.551116	815.317388	-439.165199	348.970922	696.003361	-416.070557	348.132189	681.666231	-296.830315	272.373901	544.035881	-444.108502	263.317653	460.572302	-429.056672	211.282041	386.980074	-425.851613	295.023917	450.617377	-408.201276	155.652271	272.205413	-411.062761	85.101692	250.880272	-370.145655	372.079696	131.014486	-352.735977	281.636592	167.715519	-314.793839	255.418993	150.100500	-432.556818	-116.446921	1019.694950	-238.019293	-7.567968	83.611538	-437.122599	-13.573509	81.152496	-36.743704	
753	3.7650	701.745649	1455.098672	-84.503196	720.374767	1460.427018	-412.623139	654.062676	1548.376028	-256.508822	663.532738	1370.506072	-247.565312	622.934403	1188.501426	25.819637	761.480654	942.553045	-32.692797	653.751841	1196.264839	-517.418036	753.490591	930.730240	-417.300450	132.391014	1252.631862	-266.349395	327.816248	1260.694531	-435.937905	287.899334	1309.022384	-78.556281	338.992172	1194.969384	-382.874122	328.121581	1238.262116	-115.434507	156.848917	1307.105936	-228.340997	168.107974	1298.139691	-311.333658	248.483408	1216.276250	-51.380027	246.189403	1132.512143	-439.461637	368.127057	1121.541133	-15.784542	454.049611	1097.863169	-9.440372	515.938331	1038.064798	-1.404274	471.879763	1124.890715	-28.289908	605.245123	940.690515	-10.368724	619.994092	914.448072	-137.556571	482.923977	831.367279	0.965535	429.159122	763.219186	-21.103027	347.781321	730.913162	-29.263346	450.205005	741.950396	-44.512865	239.284355	657.507270	-57.120618	165.852988	662.413382	-99.710675	383.257191	441.639760	-120.129626	291.636326	510.118880	-43.793024	315.236136	508.213155	-156.799533	272.510829	983.976650	-453.050229	309.490845	905.367561	-453.848769	345.267370	912.571955	-452.717813	303.277519	817.446781	-440.645229	347.038300	697.687014	-417.612654	345.314065	683.353334	-297.790730	268.315869	547.022968	-445.878521	258.603363	463.362790	-430.524833	205.851726	390.207240	-426.767296	290.260257	453.043543	-409.861306	149.557032	275.787550	-412.020858	78.927296	257.093288	-371.049911	361.640031	128.125535	-352.705162	272.407713	167.571796	-315.030701	245.795714	150.438325	-432.869363	-116.668726	1019.720076	-237.976229	-7.595069	83.653612	-437.129366	-13.616219	81.175052	-36.744315	
754	3.7700	699.454118	1457.568028	-81.463486	721.085894	1463.048431	-408.624963	652.808689	1551.058702	-253.082620	662.333431	1373.091028	-244.819905	621.128865	1189.862759	25.530238	761.499751	944.193865	-33.154414	657.862287	1199.026015	-515.797169	754.305824	929.724100	-413.768368	132.353981	1254.868772	-268.248721	328.584340	1263.890860	-436.277530	285.341564	1311.591523	-79.121567	339.167525	1197.481781	-382.962942	326.661587	1241.139760	-115.607188	155.561704	1310.351210	-232.201612	167.293153	1301.729468	-313.458378	247.071317	1219.359120	-52.288109	246.766174	1135.113734	-440.007608	367.702514	1125.481365	-16.888168	453.754837	1102.072923	-10.540648	515.831860	1042.516645	-3.100917	471.451711	1129.382324	-29.241604	607.110380	947.315236	-13.120812	623.138608	921.220842	-140.364463	487.647612	835.324614	-0.880330	435.325151	766.464876	-21.568216	354.379192	732.130074	-29.519532	456.870846	745.271979	-45.187044	247.112729	655.862286	-57.139183	173.440406	659.394801	-98.835086	394.731947	442.981823	-120.227563	301.813568	509.576192	-43.757895	325.050888	508.428608	-156.831027	272.930434	986.504900	-453.619154	309.418588	907.931780	-455.092373	345.236213	914.983346	-453.757360	302.817819	820.007519	-442.155316	346.341504	700.032310	-419.833759	343.752596	685.712992	-299.099642	265.276476	550.490107	-447.411837	254.682949	466.850262	-432.192684	200.877864	394.600496	-428.646791	286.254266	456.178505	-411.584382	144.037561	280.274895	-412.732559	73.488768	264.447749	-371.738376	351.093121	125.634478	-352.611468	263.289388	167.880925	-315.320816	236.337590	151.597294	-433.095931	-116.863344	1019.689863	-238.005614	-7.624503	83.675101	-437.117245	-13.645988	81.198598	-36.743864	
